# xmcd CD database file
#
# Track frame offsets:
#	150
#	9750
#	22217
#	34875
#	49275
#	63112
#	76050
#	89250
#	101175
#	114000
#	127255
#	141225
#	154500
#	168300
#	183150
#	196622
#	209175
#	223125
#	235650
#	248850
#	264450
#	276600
#	290850
#	305062
#
# Disc length: 4223 seconds
#
# Revision: 0
# Processed by: cddbd v1.5.1PL0 Copyright (c) Steve Scherf et al.
# Submitted via: CDex 1.51
#
DISCID=63107d18
DTITLE=Billie Holiday - Complete Studio Recordings 1936-1944: Vol 2 Alternates 1938-1940
DYEAR=1995
DGENRE=Jazz
TTITLE0=I'm Gonna Lock My Heart and Throw Away the Key
TTITLE1=Thats All I Ask of You
TTITLE2=More than You Know
TTITLE3=You're Too Lovely to Last
TTITLE4=Under a Blue Jungle Moon
TTITLE5=Strange Fruit
TTITLE6=Yesterdays
TTITLE7=I Gotta Right to Sing the Blues
TTITLE8=Night and Day
TTITLE9=Falling in love again
TTITLE10=Laughing at Life
TTITLE11=I Can't Get Started
TTITLE12=I'm All for You
TTITLE13=I Hear Music
TTITLE14=It's the Same old Story
TTITLE15=It's the Same old Story
TTITLE16=Practice Makes Perfect
TTITLE17=I've Got a Date with a Dream
TTITLE18=April in my Heart
TTITLE19=They Say
TTITLE20=You're So Desirable
TTITLE21=You're Gonna See a Lot of Me
TTITLE22=Hello My Darling
TTITLE23=Let's Dream in the Moonlight
EXTD=YEAR: 1995
EXTT0=
EXTT1=
EXTT2=
EXTT3=
EXTT4=
EXTT5=
EXTT6=
EXTT7=
EXTT8=
EXTT9=
EXTT10=
EXTT11=
EXTT12=
EXTT13=
EXTT14=
EXTT15=
EXTT16=
EXTT17=
EXTT18=
EXTT19=
EXTT20=
EXTT21=
EXTT22=
EXTT23=
PLAYORDER=
